<svg width="138" height="51" viewBox="0 0 138 51" fill="none" xmlns="http://www.w3.org/2000/svg">
<path d="M57.5347 0L57.7014 0.0113991C58.0832 0.0624116 58.4244 0.286873 58.6205 0.625528L71.9945 23.7515C72.219 24.1397 72.2189 24.6186 71.9945 25.0069L58.6205 48.1329C58.3964 48.5204 57.9823 48.7598 57.5347 48.7598H30.7866C30.3433 48.7596 29.9334 48.5246 29.708 48.1428L16.0547 25.0168C15.8229 24.6239 15.823 24.136 16.0547 23.743L29.708 0.616979L29.8006 0.480189C30.0362 0.179657 30.3988 0.000211703 30.7866 0H57.5347ZM18.5895 24.3785L31.5034 46.252H56.8123L69.4611 24.3785L56.8123 2.50781H31.5019L18.5895 24.3785Z" fill="black"/>
<path d="M90.446 9.86538C90.8592 9.67519 91.3505 9.72304 91.7227 10.0022L111.784 25.0476C112.215 25.3713 112.391 25.9351 112.221 26.4469L104.418 49.8521C104.248 50.3638 103.769 50.7097 103.23 50.7099H78.7106C78.1617 50.7098 77.6768 50.352 77.5137 49.8279L69.7124 24.7512C69.5474 24.2204 69.7514 23.6447 70.2139 23.3363L90.275 9.96227L90.446 9.86538ZM72.3841 24.9023L79.6339 48.2021H102.325L109.555 26.511L90.9262 12.5399L72.3841 24.9023Z" fill="black"/>
<path d="M56.9712 6.12988C57.3557 6.13016 57.6666 6.44213 57.6666 6.82666C57.6666 7.21118 57.3557 7.52315 56.9712 7.52343H31.8945C31.5098 7.52343 31.1978 7.21136 31.1978 6.82666C31.1978 6.44196 31.5098 6.12988 31.8945 6.12988H56.9712Z" fill="black"/>
<path d="M63.6151 24.0373C63.8037 23.7021 64.2288 23.5838 64.5641 23.7723C64.8994 23.9609 65.0191 24.386 64.8305 24.7212L54.7993 42.5524C54.6107 42.8876 54.1856 43.0074 53.8503 42.8188C53.5151 42.6302 53.3967 42.2051 53.5853 41.8698L63.6151 24.0373Z" fill="black"/>
<path d="M90.4074 15.8899C90.6338 15.5794 91.0697 15.5113 91.3806 15.7375L106.704 26.8815C107.015 27.1078 107.084 27.5436 106.858 27.8547C106.631 28.1659 106.196 28.2349 105.885 28.0086L90.5598 16.8631C90.2493 16.6367 90.1813 16.2008 90.4074 15.8899Z" fill="black"/>
<path d="M100.165 44.3013C100.549 44.3013 100.861 44.6133 100.861 44.998C100.861 45.3827 100.549 45.6948 100.165 45.6948H81.4971C81.1124 45.6948 80.8003 45.3827 80.8003 44.998C80.8003 44.6133 81.1124 44.3013 81.4971 44.3013H100.165Z" fill="black"/>
<path d="M0.160808 14.8486C0.499915 14.2451 1.26416 14.0309 1.86783 14.3698L17.7497 23.2853C18.3531 23.6245 18.5673 24.3887 18.2285 24.9924C17.8895 25.5961 17.1252 25.8114 16.5214 25.4726L0.639572 16.5556C0.0360925 16.2165 -0.178093 15.4522 0.160808 14.8486Z" fill="black"/>
<path d="M135.737 2.36031C136.203 1.84825 136.996 1.81054 137.509 2.27624C138.021 2.74207 138.058 3.53512 137.593 4.04738L126.447 16.3072C126.39 16.3695 126.327 16.4256 126.259 16.4753L111.771 27.0637C111.212 27.472 110.428 27.3491 110.019 26.7901C109.611 26.231 109.733 25.4474 110.292 25.0389L124.679 14.5232L135.737 2.36031Z" fill="black"/>
</svg>
