<svg width="200" height="158" viewBox="0 0 200 158" fill="none" xmlns="http://www.w3.org/2000/svg">
<path d="M69.2766 33.9043C69.9044 33.6394 70.6273 33.6846 71.2236 34.0374L107.849 55.7228C108.508 56.1131 108.913 56.8225 108.914 57.5885V99.5152C108.914 100.289 108.501 101.005 107.832 101.393L71.2063 122.598C70.5343 122.987 69.7046 122.987 69.0326 122.598L32.4071 101.393C31.7375 101.005 31.3252 100.289 31.3252 99.5152V57.5885C31.3255 56.8225 31.7308 56.1131 32.3899 55.7228L69.0153 34.0374L69.2766 33.9043ZM35.6628 58.8232V98.2656L70.1194 118.214L104.576 98.2656V58.8232L70.1194 38.4218L35.6628 58.8232Z" fill="#000000"/>
<path d="M146.365 42.4426C147.05 42.3208 147.76 42.5351 148.265 43.0317L177.662 71.9456C178.268 72.5421 178.469 73.4388 178.177 74.2376L163.72 113.754C163.407 114.609 162.594 115.178 161.684 115.178H119.275C118.672 115.178 118.095 114.925 117.685 114.483L105.155 100.99C104.341 100.113 104.392 98.7415 105.269 97.9267C106.146 97.1118 107.52 97.1624 108.334 98.0401L120.221 110.841H160.166L173.622 74.0552L146.163 47.0464L107.415 59.65C106.276 60.0204 105.053 59.3987 104.682 58.26C104.312 57.1211 104.936 55.8974 106.075 55.5269L146.074 42.5141L146.365 42.4426Z" fill="#000000"/>
<path d="M71.7942 46.9812C72.1332 46.4091 72.8731 46.2188 73.4454 46.5573L99.4684 61.9804C100.041 62.3196 100.232 63.0592 99.8923 63.6316C99.553 64.2035 98.8133 64.392 98.2411 64.0531L72.2181 48.6325C71.6459 48.2934 71.4557 47.5535 71.7942 46.9812Z" fill="#000000"/>
<path d="M98.2415 91.9833C98.8138 91.6445 99.5536 91.8349 99.8927 92.4072C100.231 92.9795 100.041 93.7193 99.4688 94.0584L73.4458 109.479C72.8736 109.818 72.1338 109.629 71.7945 109.058C71.4553 108.485 71.646 107.746 72.2184 107.406L98.2415 91.9833Z" fill="#000000"/>
<path d="M143.482 51.4349C143.952 50.9644 144.717 50.9644 145.187 51.4349L170.247 76.4943C170.717 76.9648 170.717 77.7293 170.247 78.1998C169.776 78.6703 169.012 78.6703 168.541 78.1998L143.482 53.1404C143.011 52.6699 143.011 51.9054 143.482 51.4349Z" fill="#000000"/>
<path d="M158.792 104.093C159.458 104.093 159.998 104.633 159.998 105.298C159.998 105.963 159.458 106.503 158.792 106.503H126.022C125.356 106.503 124.816 105.963 124.816 105.298C124.816 104.633 125.356 104.093 126.022 104.093H158.792Z" fill="#000000"/>
<path d="M67.9507 35.9034V2.16879C67.9507 0.971093 68.9218 0 70.1195 0C71.3172 0 72.2883 0.971093 72.2883 2.16879V35.9034C72.288 37.1009 71.317 38.0721 70.1195 38.0721C68.9219 38.0721 67.9509 37.1009 67.9507 35.9034Z" fill="#000000"/>
<path d="M75.7105 40.0241L75.7104 2.16879C75.7104 0.971093 76.6815 -4.24478e-08 77.8792 -9.48009e-08C79.0769 -1.47154e-07 80.048 0.971093 80.048 2.16879L80.048 40.0241C80.048 41.2218 79.0769 42.1928 77.8792 42.1928C76.6815 42.1928 75.7105 41.2218 75.7105 40.0241Z" fill="#000000"/>
<path d="M32.488 97.594C33.5492 97.0389 34.8607 97.4497 35.4159 98.5108C35.971 99.5721 35.5603 100.884 34.4991 101.439L3.17481 117.823C2.11353 118.378 0.802073 117.967 0.246943 116.906C-0.307511 115.845 0.103184 114.536 1.16375 113.981L32.488 97.594Z" fill="#000000"/>
<path d="M38.9967 103.73C40.0512 103.162 41.3667 103.558 41.9344 104.612C42.5018 105.667 42.1065 106.982 41.0521 107.55L8.24424 125.216C7.1898 125.783 5.87424 125.388 5.30652 124.333C4.73915 123.279 5.13448 121.963 6.18882 121.396L38.9967 103.73Z" fill="#000000"/>
<path d="M0.77363 38.6732C1.37289 37.6366 2.69926 37.2809 3.736 37.8796L34.5797 55.7105C35.6164 56.3099 35.9699 57.636 35.3708 58.6729C34.7713 59.7098 33.4453 60.0659 32.4084 59.4665L1.56721 41.6355C0.530649 41.0363 0.17497 39.7099 0.77363 38.6732Z" fill="#000000"/>
<path d="M195.778 49.8262C196.606 48.9608 197.979 48.9295 198.844 49.7572C199.709 50.5849 199.74 51.9576 198.913 52.8231L177.708 74.9916C176.881 75.8569 175.508 75.8879 174.642 75.0606C173.777 74.2329 173.746 72.8603 174.573 71.9947L195.778 49.8262Z" fill="#000000"/>
<path d="M67.9507 155.418V120.72C67.9507 119.522 68.9218 118.551 70.1195 118.551C71.3172 118.551 72.2883 119.522 72.2883 120.72V155.418C72.2882 156.615 71.3171 157.587 70.1195 157.587C68.9218 157.587 67.9508 156.615 67.9507 155.418Z" fill="#000000"/>
</svg>
