<svg width="225" height="119" viewBox="0 0 225 119" fill="none" xmlns="http://www.w3.org/2000/svg">
<path d="M104.336 30.8438L104.621 30.8635C105.281 30.9511 105.871 31.3387 106.211 31.9232L130.307 73.3668C130.699 74.0407 130.699 74.8741 130.307 75.548L106.211 116.992C105.823 117.659 105.108 118.071 104.336 118.071H56.144C55.3716 118.071 54.6567 117.659 54.2685 116.992L30.1727 75.548C29.781 74.8741 29.781 74.0407 30.1727 73.3668L54.2685 31.9232C54.6567 31.2555 55.3716 30.8438 56.144 30.8438H104.336ZM34.5571 74.4562L57.3911 113.733H103.088L125.92 74.4562L103.088 35.1813H57.3911L34.5571 74.4562Z" fill="#000000"/>
<path d="M102.637 41.4443C103.302 41.4447 103.842 41.9843 103.842 42.6495C103.842 43.3147 103.302 43.8543 102.637 43.8547H58.2999C57.6345 43.8547 57.0947 43.3149 57.0947 42.6495C57.0947 41.9841 57.6345 41.4443 58.2999 41.4443H102.637Z" fill="#000000"/>
<path d="M115.826 73.845C116.163 73.2716 116.901 73.0816 117.475 73.4186C118.048 73.756 118.241 74.4939 117.904 75.0674L98.6262 107.838C98.2885 108.411 97.5506 108.602 96.9774 108.265C96.4042 107.927 96.2137 107.189 96.551 106.616L115.826 73.845Z" fill="#000000"/>
<path d="M36.7247 0.30348C37.7544 -0.307297 39.0856 0.032995 39.6969 1.06256L58.0084 31.9038C58.6197 32.9334 58.2811 34.2643 57.2518 34.876C56.2221 35.4874 54.8911 35.1489 54.2795 34.1194L35.9656 3.27571C35.3548 2.24598 35.6951 0.914782 36.7247 0.30348Z" fill="#000000"/>
<path d="M0.242017 58.0388C0.791561 56.9751 2.10091 56.5581 3.16496 57.1073L33.0425 72.5278C34.1068 73.0772 34.5234 74.3865 33.9741 75.4508C33.4246 76.5146 32.1177 76.9316 31.0536 76.3824L1.17361 60.9618C0.109868 60.4122 -0.307169 59.1029 0.242017 58.0388Z" fill="#000000"/>
<path d="M192.873 72.588C193.551 72.1894 194.393 72.1879 195.071 72.5855L223.022 88.9697C224.055 89.5753 224.401 90.9039 223.795 91.937C223.19 92.9703 221.861 93.3166 220.828 92.7109L193.975 76.9699L162.303 95.6018C161.624 96.0009 160.783 96.0006 160.104 95.6018L127.333 76.3242C126.301 75.7169 125.957 74.3892 126.565 73.3569C127.172 72.3247 128.5 71.9808 129.532 72.588L161.201 91.2149L192.873 72.588Z" fill="#000000"/>
</svg>
