<svg width="239" height="88" viewBox="0 0 239 88" fill="none" xmlns="http://www.w3.org/2000/svg">
<path d="M99.514 0L99.8023 0.0197163C100.463 0.107949 101.053 0.496184 101.392 1.08193L124.524 41.0813C124.912 41.7528 124.912 42.5811 124.524 43.2526L101.392 83.252C101.004 83.9222 100.288 84.3364 99.514 84.3364H53.2497C52.483 84.336 51.7739 83.9295 51.3841 83.2693L27.7689 43.2698C27.368 42.5902 27.3682 41.7463 27.7689 41.0666L51.3841 1.06714L51.5443 0.830548C51.9517 0.310739 52.5789 0.000366168 53.2497 0H99.514ZM32.1533 42.1657L54.4894 79.9988H98.2644L120.142 42.1657L98.2644 4.33758H54.4869L32.1533 42.1657Z" fill="#000000"/>
<path d="M156.438 17.0641C157.153 16.7351 158.002 16.8179 158.646 17.3007L193.344 43.3237C194.091 43.8835 194.395 44.8587 194.101 45.7439L180.605 86.2263C180.31 87.1112 179.483 87.7097 178.55 87.71H136.14C135.191 87.7098 134.352 87.091 134.07 86.1844L120.576 42.8111C120.291 41.8929 120.644 40.8972 121.444 40.3638L156.142 17.2317L156.438 17.0641ZM125.197 43.0723L137.737 83.3724H176.985L189.49 45.8548L157.268 21.69L125.197 43.0723Z" fill="#000000"/>
<path d="M98.5395 10.6025C99.2044 10.603 99.7421 11.1426 99.7421 11.8077C99.7421 12.4728 99.2044 13.0124 98.5395 13.0129H55.1661C54.5007 13.0129 53.9609 12.4731 53.9609 11.8077C53.9609 11.1423 54.5007 10.6025 55.1661 10.6025H98.5395Z" fill="#000000"/>
<path d="M110.03 41.5768C110.357 40.9971 111.092 40.7924 111.672 41.1184C112.252 41.4447 112.459 42.1799 112.133 42.7598L94.7822 73.601C94.456 74.181 93.7208 74.3881 93.1408 74.0619C92.5611 73.7356 92.3563 73.0003 92.6824 72.4205L110.03 41.5768Z" fill="#000000"/>
<path d="M156.371 27.4828C156.763 26.9457 157.517 26.828 158.055 27.2191L184.558 46.4942C185.096 46.8856 185.216 47.6394 184.825 48.1775C184.433 48.7156 183.679 48.835 183.141 48.4437L156.635 29.1661C156.098 28.7745 155.98 28.0205 156.371 27.4828Z" fill="#000000"/>
<path d="M173.248 76.625C173.913 76.625 174.453 77.1648 174.453 77.8302C174.453 78.4955 173.913 79.0353 173.248 79.0353H140.96C140.295 79.0353 139.755 78.4955 139.755 77.8302C139.755 77.1648 140.295 76.625 140.96 76.625H173.248Z" fill="#000000"/>
<path d="M0.278139 25.6839C0.864667 24.6401 2.18653 24.2696 3.23065 24.8558L30.7004 40.2764C31.7441 40.8629 32.1146 42.1848 31.5284 43.2289C30.9422 44.2731 29.6203 44.6455 28.5759 44.0594L1.10622 28.6364C0.0624266 28.0498 -0.308034 26.728 0.278139 25.6839Z" fill="#000000"/>
<path d="M234.775 4.08337C235.581 3.1977 236.953 3.13248 237.839 3.93796C238.724 4.74366 238.79 6.11535 237.984 7.00138L218.707 28.2062C218.608 28.3141 218.499 28.411 218.381 28.4971L193.322 46.811C192.355 47.5172 190.999 47.3046 190.293 46.3378C189.587 45.3708 189.797 44.0155 190.764 43.3089L215.648 25.1206L234.775 4.08337Z" fill="#000000"/>
</svg>
