<svg width="238" height="94" viewBox="0 0 238 94" fill="none" xmlns="http://www.w3.org/2000/svg">
<path d="M97.1064 0L97.3923 0.0197163C98.0533 0.107691 98.6451 0.495534 98.9844 1.08193L122.114 41.0813C122.502 41.7529 122.502 42.581 122.114 43.2526L98.9844 83.252C98.5969 83.9221 97.8805 84.3362 97.1064 84.3364H50.8422C50.0679 84.3364 49.3518 83.9222 48.9642 83.252L25.8321 43.2526C25.4442 42.5811 25.4438 41.7527 25.8321 41.0813L48.9642 1.08193L49.1244 0.845336C49.5315 0.31675 50.1643 0 50.8422 0H97.1064ZM30.214 42.1657L52.0941 79.9988H95.8544L117.732 42.1657L95.8544 4.33758H52.0941L30.214 42.1657Z" fill="#000000"/>
<path d="M95.89 10.1201C96.555 10.1206 97.0927 10.6602 97.0927 11.3253C97.0927 11.9904 96.555 12.53 95.89 12.5304H52.5167C51.8513 12.5304 51.3115 11.9907 51.3115 11.3253C51.3115 10.6599 51.8513 10.1201 52.5167 10.1201H95.89Z" fill="#000000"/>
<path d="M107.629 41.5646C107.963 40.9892 108.7 40.7931 109.276 41.126C109.851 41.4592 110.047 42.1965 109.714 42.7723L91.8834 73.6135C91.5504 74.1895 90.8132 74.3876 90.2371 74.0546C89.6614 73.7215 89.4655 72.9842 89.7984 72.4083L107.629 41.5646Z" fill="#000000"/>
<path d="M29.0339 41.126C29.6097 40.7931 30.3469 40.9892 30.6802 41.5646L48.5111 72.4083C48.8441 72.9842 48.6482 73.7215 48.0724 74.0546C47.4964 74.3876 46.7591 74.1895 46.4261 73.6135L28.5952 42.7723C28.2623 42.1965 28.4585 41.4592 29.0339 41.126Z" fill="#000000"/>
<path d="M27.7112 40C28.9085 40.0005 29.88 40.9714 29.88 42.1688C29.88 43.3662 28.9085 44.3371 27.7112 44.3376H2.16879C0.971093 44.3376 0 43.3665 0 42.1688C0 40.9711 0.971093 40 2.16879 40H27.7112Z" fill="#000000"/>
<path d="M118.355 41.0911C118.949 40.0518 120.275 39.6911 121.314 40.2852L150.652 57.0465L179.482 42.1681C180.547 41.619 181.854 42.0379 182.403 43.1022C182.952 44.1664 182.535 45.4734 181.471 46.0226L151.594 61.4432C150.941 61.7803 150.159 61.7635 149.521 61.3989L119.16 44.051C118.121 43.4566 117.76 42.1307 118.355 41.0911Z" fill="#000000"/>
<path d="M165.97 16.6373C167.029 16.0779 168.341 16.4828 168.901 17.5418L182.394 43.0842C182.953 44.1431 182.548 45.4552 181.49 46.0146C180.431 46.5734 179.119 46.1685 178.559 45.1101L165.066 19.5676C164.507 18.5086 164.912 17.1968 165.97 16.6373Z" fill="#000000"/>
<path d="M178.542 43.1151C179.084 42.0477 180.39 41.62 181.458 42.1613L211.821 57.5843C212.888 58.1271 213.314 59.4324 212.772 60.4999C212.23 61.5674 210.924 61.9928 209.857 61.4512L179.496 46.0306C178.429 45.4884 178.001 44.1826 178.542 43.1151Z" fill="#000000"/>
<path d="M234.315 43.1916C235.347 42.5843 236.677 42.9282 237.284 43.9605C237.891 44.9925 237.547 46.3203 236.515 46.9278L211.937 61.3872C210.904 61.994 209.576 61.6479 208.969 60.6158C208.362 59.5835 208.706 58.2557 209.738 57.6485L234.315 43.1916Z" fill="#000000"/>
<path d="M208.669 91.3247V59.5174C208.669 58.3197 209.641 57.3486 210.838 57.3486C212.036 57.3486 213.007 58.3197 213.007 59.5174V91.3247C213.007 92.522 212.036 93.4935 210.838 93.4935C209.641 93.4935 208.67 92.522 208.669 91.3247Z" fill="#000000"/>
<path d="M217.037 90.4984L217.037 55.1668C217.037 53.9691 218.008 52.998 219.205 52.998C220.403 52.998 221.374 53.9691 221.374 55.1668L221.374 90.4984C221.374 91.6961 220.403 92.6672 219.205 92.6672C218.008 92.6672 217.037 91.6961 217.037 90.4984Z" fill="#000000"/>
</svg>
