<svg width="255" height="48" viewBox="0 0 255 48" fill="none" xmlns="http://www.w3.org/2000/svg">
<path d="M220.835 32.0971C221.871 31.4971 223.2 31.8517 223.8 32.8882C224.4 33.9247 224.045 35.253 223.009 35.853L204.695 46.453C204.03 46.8376 203.212 46.8426 202.543 46.4653L184.828 36.4716L167.589 46.453C166.924 46.8377 166.106 46.8424 165.437 46.4653L147.722 36.4716L130.48 46.453C129.808 46.8421 128.978 46.8421 128.306 46.453L111.079 36.4815L93.8546 46.453C93.19 46.8378 92.372 46.8426 91.7031 46.4653L74.0126 36.484L56.7831 46.9139C56.1005 47.3269 55.2473 47.3314 54.5601 46.9262L36.8549 36.4864L19.6401 46.453C18.6036 47.0531 17.2753 46.7009 16.6752 45.6643C16.0752 44.6278 16.4299 43.2996 17.4664 42.6995L35.7803 32.0971L36.0416 31.9689C36.6644 31.7128 37.3792 31.7592 37.9688 32.1069L55.6469 42.5319L72.8519 32.1193L73.1082 31.9862C73.7264 31.7171 74.441 31.7507 75.0379 32.0872L92.753 42.076L109.995 32.0971L110.254 31.9714C110.872 31.716 111.58 31.7566 112.169 32.0971L129.393 42.0686L146.62 32.0971L146.877 31.9714C147.488 31.7182 148.187 31.7572 148.772 32.0872L166.487 42.0784L183.729 32.0971L183.983 31.9714C184.594 31.7176 185.295 31.7569 185.88 32.0872L203.595 42.0784L220.835 32.0971Z" fill="#000000"/>
<path d="M0.275717 34.3641C0.859918 33.3187 2.1803 32.9446 3.22577 33.5286L19.6125 42.6844C20.6576 43.2688 21.0321 44.5916 20.4479 45.6369C19.8636 46.6821 18.5408 47.0541 17.4954 46.4699L1.11119 37.3142C0.0657824 36.73 -0.308282 35.4096 0.275717 34.3641Z" fill="#000000"/>
<path d="M239.148 21.495C240.185 20.8959 241.511 21.2502 242.111 22.2861C242.711 23.3227 242.356 24.6509 241.32 25.251L223.008 35.8509C221.972 36.451 220.643 36.0988 220.043 35.0623C219.443 34.0258 219.798 32.6975 220.835 32.0975L239.148 21.495Z" fill="#000000"/>
<path d="M238.325 22.3451C238.892 21.2907 240.208 20.8954 241.262 21.4628L253.792 28.2107C254.847 28.7785 255.242 30.0939 254.674 31.1484C254.106 32.2027 252.791 32.596 251.737 32.0282L239.207 25.2828C238.153 24.7151 237.757 23.3995 238.325 22.3451Z" fill="#000000"/>
<path d="M238.067 23.3737V2.16879C238.067 0.971093 239.038 0 240.236 0C241.433 0 242.404 0.971093 242.404 2.16879V23.3737C242.404 24.5711 241.433 25.5424 240.236 25.5424C239.038 25.5424 238.067 24.5711 238.067 23.3737Z" fill="#000000"/>
<path d="M244.812 23.3737V2.16879C244.812 0.971093 245.784 0 246.981 0C248.179 0 249.15 0.971093 249.15 2.16879V23.3737C249.15 24.5711 248.179 25.5424 246.981 25.5424C245.784 25.5424 244.813 24.5711 244.812 23.3737Z" fill="#000000"/>
<path d="M35.8289 27.5815C36.1668 27.0085 36.9046 26.8175 37.4777 27.1551L56.2723 38.2381C56.8454 38.5761 57.0366 39.3162 56.6986 39.8894C56.3606 40.4617 55.6227 40.6528 55.0499 40.3157L36.2553 29.2303C35.6823 28.8923 35.4914 28.1545 35.8289 27.5815Z" fill="#000000"/>
<path d="M72.9242 27.6019C73.251 27.0225 73.9861 26.817 74.5656 27.1434L93.3601 37.7459C93.9396 38.0727 94.1452 38.8078 93.8185 39.3873C93.4917 39.9666 92.7566 40.1721 92.1772 39.8457L73.3826 29.2432C72.8033 28.9164 72.5978 28.1813 72.9242 27.6019Z" fill="#000000"/>
<path d="M110.039 27.5893C110.372 27.0136 111.109 26.8173 111.685 27.1506L129.997 37.7531C130.572 38.0864 130.771 38.8236 130.438 39.3994C130.105 39.975 129.367 40.1708 128.791 39.8381L110.478 29.2356C109.902 28.9022 109.705 28.1651 110.039 27.5893Z" fill="#000000"/>
<path d="M146.657 27.6019C146.984 27.0225 147.719 26.817 148.299 27.1434L167.093 37.7459C167.672 38.0727 167.878 38.8078 167.551 39.3873C167.225 39.9666 166.49 40.1721 165.91 39.8457L147.116 29.2432C146.536 28.9164 146.331 28.1813 146.657 27.6019Z" fill="#000000"/>
<path d="M183.765 27.6019C184.091 27.0225 184.826 26.817 185.406 27.1434L204.2 37.7459C204.78 38.0727 204.986 38.8078 204.659 39.3873C204.332 39.9666 203.597 40.1721 203.017 39.8457L184.223 29.2432C183.644 28.9164 183.438 28.1813 183.765 27.6019Z" fill="#000000"/>
</svg>
