<svg width="148" height="28" viewBox="0 0 148 28" fill="none" xmlns="http://www.w3.org/2000/svg">
<path d="M127.677 18.557C128.276 18.2101 129.044 18.4151 129.391 19.0143C129.738 19.6136 129.533 20.3816 128.933 20.7285L118.345 26.857C117.961 27.0793 117.488 27.0822 117.101 26.8641L106.859 21.0861L96.8919 26.857C96.5077 27.0794 96.0346 27.0821 95.6479 26.8641L85.4058 21.0861L75.4373 26.857C75.0487 27.0819 74.5691 27.0819 74.1805 26.857L64.2205 21.0918L54.2619 26.857C53.8777 27.0794 53.4047 27.0822 53.018 26.8641L42.7901 21.0933L32.8287 27.1234C32.4341 27.3622 31.9408 27.3648 31.5434 27.1305L21.307 21.0947L11.3541 26.857C10.7548 27.2039 9.98692 27.0003 9.63998 26.401C9.29307 25.8017 9.49811 25.0338 10.0974 24.6868L20.6857 18.557L20.8368 18.4829C21.1969 18.3348 21.6101 18.3616 21.9511 18.5627L32.1718 24.5899L42.119 18.5698L42.2672 18.4928C42.6246 18.3372 43.0377 18.3567 43.3829 18.5513L53.625 24.3263L63.5935 18.557L63.7432 18.4843C64.1005 18.3366 64.5103 18.3601 64.8503 18.557L74.8089 24.3221L84.7689 18.557L84.9171 18.4843C85.2703 18.3379 85.6745 18.3604 86.0128 18.5513L96.2549 24.3278L106.223 18.557L106.37 18.4843C106.724 18.3375 107.129 18.3603 107.467 18.5513L117.71 24.3278L127.677 18.557Z" fill="black"/>
<path d="M0.159408 19.8675C0.497169 19.2631 1.26056 19.0469 1.865 19.3845L11.3391 24.678C11.9433 25.0159 12.1599 25.7806 11.8222 26.385C11.4843 26.9893 10.7195 27.2044 10.1151 26.8666L0.642447 21.5731C0.0380327 21.2354 -0.178236 20.472 0.159408 19.8675Z" fill="black"/>
<path d="M138.266 12.4278C138.865 12.0814 139.632 12.2862 139.979 12.8851C140.325 13.4844 140.12 14.2523 139.521 14.5993L128.934 20.7278C128.335 21.0747 127.567 20.8711 127.22 20.2718C126.873 19.6725 127.078 18.9046 127.677 18.5576L138.266 12.4278Z" fill="black"/>
<path d="M137.789 12.9192C138.117 12.3096 138.878 12.0811 139.487 12.4091L146.732 16.3105C147.341 16.6388 147.57 17.3992 147.242 18.0089C146.913 18.6185 146.153 18.8459 145.543 18.5176L138.299 14.6177C137.69 14.2895 137.461 13.5289 137.789 12.9192Z" fill="black"/>
<path d="M137.64 13.5137V1.25391C137.64 0.561446 138.201 0 138.894 0C139.586 0 140.147 0.561446 140.147 1.25391V13.5137C140.147 14.206 139.586 14.7676 138.894 14.7676C138.201 14.7676 137.64 14.206 137.64 13.5137Z" fill="black"/>
<path d="M141.541 13.5137V1.25391C141.541 0.561446 142.102 0 142.794 0C143.487 0 144.048 0.561446 144.048 1.25391V13.5137C144.048 14.206 143.487 14.7676 142.794 14.7676C142.102 14.7676 141.541 14.206 141.541 13.5137Z" fill="black"/>
<path d="M20.7146 15.9455C20.91 15.6142 21.3365 15.5038 21.6679 15.699L32.5341 22.1067C32.8655 22.3022 32.976 22.73 32.7806 23.0614C32.5852 23.3923 32.1585 23.5028 31.8274 23.3079L20.9611 16.8988C20.6299 16.7034 20.5194 16.2768 20.7146 15.9455Z" fill="black"/>
<path d="M42.1615 15.9573C42.3504 15.6223 42.7755 15.5035 43.1105 15.6923L53.9767 21.8221C54.3117 22.0111 54.4306 22.4361 54.2417 22.7711C54.0528 23.1061 53.6278 23.2249 53.2928 23.0361L42.4265 16.9063C42.0916 16.7173 41.9727 16.2923 42.1615 15.9573Z" fill="black"/>
<path d="M63.6193 15.95C63.812 15.6172 64.2382 15.5037 64.5711 15.6964L75.158 21.8263C75.491 22.019 75.6058 22.4452 75.4131 22.7781C75.2204 23.1109 74.7941 23.2241 74.4613 23.0318L63.8729 16.9019C63.5401 16.7091 63.4265 16.2829 63.6193 15.95Z" fill="black"/>
<path d="M84.7909 15.9573C84.9798 15.6223 85.4048 15.5035 85.7399 15.6923L96.6061 21.8221C96.9411 22.0111 97.06 22.4361 96.8711 22.7711C96.6822 23.1061 96.2572 23.2249 95.9221 23.0361L85.0559 16.9063C84.721 16.7173 84.6021 16.2923 84.7909 15.9573Z" fill="black"/>
<path d="M106.244 15.9573C106.433 15.6223 106.858 15.5035 107.193 15.6923L118.06 21.8221C118.395 22.0111 118.514 22.4361 118.325 22.7711C118.136 23.1061 117.711 23.2249 117.376 23.0361L106.51 16.9063C106.175 16.7173 106.056 16.2923 106.244 15.9573Z" fill="black"/>
</svg>
