<?xml version="1.0" standalone="no"?>
<!DOCTYPE svg PUBLIC "-//W3C//DTD SVG 20010904//EN"
 "http://www.w3.org/TR/2001/REC-SVG-20010904/DTD/svg10.dtd">
<svg version="1.0" xmlns="http://www.w3.org/2000/svg"
 width="536.000000pt" height="496.000000pt" viewBox="0 0 536.000000 496.000000"
 preserveAspectRatio="xMidYMid meet">

<g transform="translate(0.000000,496.000000) scale(0.100000,-0.100000)"
fill="#ffffff" stroke="none">
<path d="M2395 4734 c-521 -52 -982 -264 -1356 -624 -70 -67 -220 -250 -284
-346 -218 -328 -356 -747 -359 -1089 l-1 -140 2149 -3 2149 -2 -6 -133 c-14
-328 -133 -697 -312 -974 -264 -405 -560 -658 -975 -832 -270 -113 -512 -161
-817 -161 -263 0 -429 26 -673 107 -786 262 -1337 951 -1427 1786 l-17 157
-40 0 -39 0 7 -112 c11 -194 64 -423 146 -632 57 -145 90 -212 165 -336 218
-359 526 -641 910 -830 161 -80 302 -129 487 -171 196 -44 292 -52 547 -46
192 5 244 9 345 31 190 42 321 83 464 146 478 211 851 567 1087 1038 142 285
210 559 222 900 l6 172 -2146 0 c-1180 0 -2148 4 -2151 8 -3 5 -1 53 5 108 35
361 198 777 422 1074 67 89 265 288 362 364 567 445 1276 579 1947 367 144
-46 167 -55 313 -128 309 -155 568 -374 759 -642 226 -315 358 -653 402 -1033
6 -58 6 -58 40 -58 34 0 34 1 34 44 0 185 -101 546 -217 781 -32 64 -150 263
-163 275 -3 3 -32 41 -64 85 -81 110 -301 327 -416 412 -310 227 -611 355
-990 419 -82 14 -432 26 -515 18z"/>
</g>
</svg>
