<svg width="27" height="219" viewBox="0 0 27 219" fill="none" xmlns="http://www.w3.org/2000/svg">
<path d="M24.4729 1.81603C24.3616 0.697828 23.2756 -0.109531 22.0473 0.0127455L2.03166 2.00535C0.803399 2.12763 -0.102062 3.13323 0.00925817 4.25144C0.120578 5.36964 1.20652 6.177 2.43479 6.05473L20.2265 4.28352L21.839 20.481C21.9503 21.5992 23.0363 22.4066 24.2645 22.2843C25.4928 22.162 26.3983 21.1564 26.2869 20.0382L24.4729 1.81603ZM3.01434 23.3994L4.72945 24.6745L23.964 3.31255L22.2489 2.03743L20.5338 0.762316L1.29924 22.1243L3.01434 23.3994Z" fill="white"/>
<path d="M24.4729 98.9166C24.3616 97.7984 23.2756 96.9911 22.0473 97.1133L2.03166 99.1059C0.803399 99.2282 -0.102062 100.234 0.00925817 101.352C0.120578 102.47 1.20652 103.278 2.43479 103.155L20.2265 101.384L21.839 117.582C21.9503 118.7 23.0363 119.507 24.2645 119.385C25.4928 119.263 26.3983 118.257 26.2869 117.139L24.4729 98.9166ZM3.01434 120.5L4.72945 121.775L23.964 100.413L22.2489 99.138L20.5338 97.8629L1.29924 119.225L3.01434 120.5Z" fill="white"/>
<path d="M24.4729 196.016C24.3616 194.898 23.2756 194.091 22.0473 194.213L2.03166 196.206C0.803399 196.328 -0.102062 197.333 0.00925817 198.452C0.120578 199.57 1.20652 200.377 2.43479 200.255L20.2265 198.484L21.839 214.681C21.9503 215.799 23.0363 216.607 24.2645 216.485C25.4928 216.362 26.3983 215.357 26.2869 214.238L24.4729 196.016ZM3.01434 217.6L4.72945 218.875L23.964 197.513L22.2489 196.238L20.5338 194.963L1.29924 216.324L3.01434 217.6Z" fill="white"/>
</svg>
