<svg width="202" height="43" viewBox="0 0 202 43" fill="none" xmlns="http://www.w3.org/2000/svg">
<path d="M154.854 1.21973H161.045L166.76 29.771H194.382" stroke="white" stroke-width="2.4402" stroke-linecap="round" stroke-linejoin="round"/>
<path d="M163.903 8.9624H200.097L195.334 24.4478H167.236" stroke="white" stroke-width="2.4402" stroke-linecap="round" stroke-linejoin="round"/>
<path d="M171.523 40.9008C173.364 40.9008 174.856 39.3842 174.856 37.5134C174.856 35.6426 173.364 34.126 171.523 34.126C169.681 34.126 168.189 35.6426 168.189 37.5134C168.189 39.3842 169.681 40.9008 171.523 40.9008Z" stroke="white" stroke-width="2.4402" stroke-linecap="round" stroke-linejoin="round"/>
<path d="M192.477 40.9008C194.318 40.9008 195.811 39.3842 195.811 37.5134C195.811 35.6426 194.318 34.126 192.477 34.126C190.636 34.126 189.143 35.6426 189.143 37.5134C189.143 39.3842 190.636 40.9008 192.477 40.9008Z" stroke="white" stroke-width="2.4402" stroke-linecap="round" stroke-linejoin="round"/>
<circle cx="96.1385" cy="12.1886" r="9.74873" stroke="white" stroke-width="2.4402"/>
<path d="M76.1365 41.1775C92.3133 23.7003 101.051 24.3696 116.141 41.1775" stroke="white" stroke-width="2.4402"/>
<circle cx="18.7115" cy="22.5123" r="17.4914" stroke="white" stroke-width="2.4402"/>
<path d="M18.7116 5.09131V39.9335" stroke="white" stroke-width="2.4402"/>
<path d="M24.4021 6.10059C31.3691 18.3627 31.1359 25.4379 24.4021 38.3619" stroke="white" stroke-width="2.4402"/>
<path d="M12.4588 38.3618C5.49177 26.0997 5.72499 19.0245 12.4588 6.10054" stroke="white" stroke-width="2.4402"/>
<line x1="1.29041" y1="21.9376" x2="36.1326" y2="21.9376" stroke="white" stroke-width="2.4402"/>
</svg>
